<svg viewBox="0 0 3334 3334" xmlns="http://www.w3.org/2000/svg" fill-rule="evenodd" clip-rule="evenodd" stroke-linejoin="round" stroke-miterlimit="2"><circle cx="1666.67" cy="1666.67" r="1666.67" fill="#00a896"/><path d="M551.704 2333.63c-133.148 0-243.698-32.982-331.649-98.945S85.685 2072.22 80.799 1945.179c0-10.994 3.665-20.461 10.994-28.401 7.329-7.94 17.102-11.91 29.317-11.91h98.945c25.652 0 41.533 14.048 47.64 42.144 7.33 78.178 37.257 136.202 89.784 174.069 52.526 37.868 118.489 56.802 197.889 56.802 91.616 0 162.16-30.233 211.633-90.699 49.472-60.467 74.208-142.005 74.208-244.614v-650.472H190.738c-12.215 0-22.293-3.97-30.233-11.91-7.94-7.94-11.91-18.017-11.91-30.233v-75.125c0-12.215 3.97-22.293 11.91-30.233 7.94-7.94 18.018-11.91 30.233-11.91h789.727c13.437 0 24.126 3.97 32.066 11.91 7.94 7.94 11.91 18.629 11.91 32.066v769.571c0 149.029-41.838 267.518-125.514 355.469-83.675 87.951-199.417 131.927-347.223 131.927zM1335.93 1184.77c-12.215 0-22.293-3.97-30.233-11.91-7.94-7.94-11.91-18.018-11.91-30.233v-98.945c0-12.215 3.97-22.598 11.91-31.149 7.94-8.551 18.018-12.826 30.233-12.826h115.436c12.215 0 22.598 4.275 31.149 12.826 8.551 8.551 12.826 18.934 12.826 31.149v98.945c0 12.215-4.275 22.293-12.826 30.233-8.551 7.94-18.934 11.91-31.149 11.91H1335.93zm14.659 1130.54c-12.216 0-22.294-3.97-30.234-11.91-7.94-7.94-11.91-18.018-11.91-30.234V1404.65c0-12.216 3.97-22.293 11.91-30.233 7.94-7.94 18.018-11.91 30.234-11.91h87.951c12.215 0 22.293 3.97 30.233 11.91 7.94 7.94 11.91 18.017 11.91 30.233v868.516c0 12.216-3.97 22.294-11.91 30.234-7.94 7.94-18.018 11.91-30.233 11.91h-87.951zM1794.01 2315.31c-12.215 0-22.293-3.97-30.233-11.91-7.94-7.94-11.91-18.018-11.91-30.234v-866.684c0-12.215 3.97-22.598 11.91-31.149 7.94-8.551 18.018-12.826 30.233-12.826h84.287c12.215 0 22.598 4.275 31.149 12.826 8.551 8.551 12.826 18.934 12.826 31.149v80.622c50.084-83.065 135.592-124.597 256.524-124.597h71.461c12.215 0 22.293 3.97 30.233 11.91 7.94 7.94 11.91 18.017 11.91 30.233v75.125c0 12.215-3.97 21.987-11.91 29.317-7.94 7.329-18.018 10.994-30.233 10.994h-109.939c-65.964 0-117.879 19.239-155.747 57.717-37.868 38.479-56.802 90.7-56.802 156.663v538.7c0 12.216-4.275 22.294-12.826 30.234-8.551 7.94-18.934 11.91-31.149 11.91h-89.784zM2820.11 2333.63c-134.37 0-238.506-37.868-312.409-113.604-73.904-75.735-113.298-176.513-118.185-302.331l-1.832-78.79 1.832-78.789c4.887-124.598 44.587-225.07 119.101-301.416s178.345-114.52 311.493-114.52 236.979 38.174 311.493 114.52c74.514 76.346 114.215 176.818 119.101 301.416 1.221 13.437 1.832 39.7 1.832 78.789s-.611 65.353-1.832 78.79c-4.886 125.818-44.281 226.596-118.184 302.331-73.904 75.736-178.04 113.604-312.41 113.604zm0-141.088c76.957 0 137.729-24.431 182.315-73.293 44.587-48.862 68.712-119.1 72.377-210.716 1.221-12.215 1.832-35.425 1.832-69.628s-.611-57.412-1.832-69.628c-3.665-91.615-27.79-161.854-72.377-210.716-44.586-48.862-105.358-73.292-182.315-73.292s-138.034 24.43-183.231 73.292-69.017 119.101-71.461 210.716l-1.832 69.628 1.832 69.628c2.444 91.616 26.264 161.854 71.461 210.716 45.197 48.862 106.274 73.293 183.231 73.293z" fill="#fff" fill-rule="nonzero"/></svg>